<?xml version="1.0" encoding="utf-8"?>
<!-- Generator: Adobe Illustrator 22.1.0, SVG Export Plug-In . SVG Version: 6.00 Build 0)  -->
<svg version="1.1" id="Layer_1" xmlns="http://www.w3.org/2000/svg" xmlns:xlink="http://www.w3.org/1999/xlink" x="0px" y="0px"
	 viewBox="0 0 196 211.7" style="enable-background:new 0 0 196 211.7;" xml:space="preserve">
<style type="text/css">
	.st0{fill:#FFFFFF;}
	.st1{fill:#FFFFFF;stroke:#000000;stroke-width:4;stroke-miterlimit:10;}
	.st2{fill:none;stroke:#000000;stroke-width:3;stroke-miterlimit:10;}
	.st3{fill:#FFFFFF;stroke:#000000;stroke-width:4;stroke-linecap:round;stroke-miterlimit:10;}
	.st4{fill:#FFFFFF;stroke:#000000;stroke-width:3;stroke-linecap:round;stroke-miterlimit:10;}
	.st5{fill:#D1D3D4;stroke:#000000;stroke-width:3;stroke-linecap:round;stroke-linejoin:round;stroke-miterlimit:1;}
	.st6{fill:#E6E7E8;stroke:#000000;stroke-width:3;stroke-linecap:round;stroke-linejoin:round;stroke-miterlimit:1;}
	.st7{fill:#73A5D1;}
</style>
<g>
	<path class="st0" d="M56,107.7c0,0-17.8,68-11,84.6s38.2,25.6,58.2,9.9c4.8,5.1,52.3,14.4,57.1-11.2c4.8-25.6-12.9-88.6-12.9-88.6
		L56,107.7z"/>
	<g>
		
			<ellipse transform="matrix(0.999 -4.572972e-02 4.572972e-02 0.999 -2.542 4.5226)" class="st0" cx="97.6" cy="57.8" rx="80.7" ry="57.8"/>
		<g>
			
				<ellipse transform="matrix(0.1518 -0.9884 0.9884 0.1518 -9.3708 118.4102)" class="st0" cx="64.3" cy="64.7" rx="9.1" ry="8.6"/>
			
				<ellipse transform="matrix(0.1518 -0.9884 0.9884 0.1518 56.9376 175.7132)" class="st0" cx="130.8" cy="54.7" rx="9.1" ry="8.6"/>
			<path class="st0" d="M64.3,64.7c0,0,44.4,24.4,66.5-10"/>
		</g>
	</g>
	<path class="st0" d="M102.3,179.4c0,0,6,13,0.9,22.8"/>
	<path class="st0" d="M85.9,175.3c0,0,16.5,9.6,37.4,0"/>
	<path class="st0" d="M47.2,195.5c79.4,0.5,111.4,0.8,111.4,0.8"/>
	<path class="st0" d="M148.3,104.7l7.3-6.1c0,0-2.2-15.5,11-10.1c5.1-2.9,29.6-2.4,21.8,18.4c-3.2,7.7-15.4,25.3-30.7,32"/>
	<path class="st0" d="M45.6,155.6c5.1,2.7,13.5,29.6,0,36.6C45.6,192.2,42,163.1,45.6,155.6"/>
	<path class="st0" d="M156.1,139.6c0,0,15.8-9.8,19.9-14.6c4.1-4.8,9.4-12.5,9.4-12.5S154.1,117.7,156.1,139.6z"/>
	<path class="st0" d="M157.3,155.6c0,0,3.6,29.1,0,36.6C152.2,189.5,143.8,162.6,157.3,155.6z"/>
	<path class="st0" d="M52.4,106.4c0,0-39.1,27-40.3,47s6.5,26.1,22.5,19.1c4.4,1.5,16.6,0.6,12.4-12C48,155.2,59.8,110,59.8,110
		L52.4,106.4z"/>
	<path class="st0" d="M39.7,118.4c0,0-14.8,11.2-18.4,16.3S13.1,148,13.1,148S43.8,140,39.7,118.4z"/>
</g>
<path class="st1" d="M59.3,106.4c0,0-16.5,63.8-10.3,79.3s35.5,24,54,9.3c4.5,4.8,48.5,13.5,53-10.5s-12-83-12-83L59.3,106.4z"/>
<g>
	
		<ellipse transform="matrix(0.9989 -4.711151e-02 4.711151e-02 0.9989 -2.704 4.6775)" class="st1" cx="97.9" cy="59.7" rx="74.9" ry="54.1"/>
	<g>
		<ellipse transform="matrix(0.13 -0.9915 0.9915 0.13 -7.2683 123.9486)" cx="67" cy="66.1" rx="8.6" ry="8"/>
		<ellipse transform="matrix(0.13 -0.9915 0.9915 0.13 55.7312 177.0448)" cx="128.8" cy="56.8" rx="8.6" ry="8"/>
		<path class="st2" d="M67,66.1c0,0,41.2,22.9,61.8-9.4"/>
	</g>
</g>
<path class="st3" d="M102.2,173.6c0,0,5.6,12.1,0.8,21.3"/>
<path class="st4" d="M87.1,169.8c0,0,15.3,9,34.7,0"/>
<path class="st4" d="M51.1,188.7c73.7,0.5,103.4,0.7,103.4,0.7"/>
<path class="st4" d="M145,103.6l6.8-5.8c0,0-2-14.5,10.3-9.5c4.8-2.8,27.5-2.3,20.3,17.3c-3,7.3-14.3,23.8-28.5,30"/>
<path class="st5" d="M49.6,151.3c4.8,2.5,12.5,27.8,0,34.3C49.6,185.6,46.3,158.3,49.6,151.3"/>
<path class="st5" d="M152.2,136.4c0,0,14.7-9.2,18.4-13.7c3.8-4.5,8.7-11.7,8.7-11.7S150.3,115.8,152.2,136.4z"/>
<path class="st6" d="M153.3,151.3c0,0,3.3,27.3,0,34.3C148.6,183.1,140.8,157.8,153.3,151.3z"/>
<path class="st4" d="M56,105.3c0,0-36.3,25.3-37.4,44c-1.1,18.7,6,24.5,20.9,17.9c4.1,1.4,15.4,0.5,11.5-11.3
	c0.8-4.9,11.8-47.3,11.8-47.3L56,105.3z"/>
<path class="st6" d="M44.2,116.4c0,0-13.8,10.5-17.1,15.3c-3.3,4.8-7.6,12.5-7.6,12.5S48,136.7,44.2,116.4z"/>
<g>
	<path class="st7" d="M135.4,119.3c-0.9-0.6-8.1-1.3-12.1-1.3c-4,0-11.2,0.7-12.1,1.3c-0.9,0.6-1.2,0.9-1.2,2.1c0,1,0,14,0,18.1
		c0,0.6,0.3,2,0.3,2.1c0.6,1.7,3.5,5.1,7.4,8.2c4,3.1,4.9,3.4,5.5,3.4c0.6,0,1.6-0.3,5.5-3.4c4-3.1,6.9-6.5,7.4-8.2
		c0-0.1,0.3-1.5,0.3-2.1c0-4.1,0-17.1,0-18.1C136.6,120.2,136.3,119.8,135.4,119.3z"/>
	<rect x="119.3" y="122.7" class="st0" width="7.8" height="20.8"/>
	
		<rect x="119.3" y="122.3" transform="matrix(-1.836970e-16 1 -1 -1.836970e-16 255.9083 9.3761)" class="st0" width="7.8" height="20.8"/>
</g>
</svg>
